<?xml version="1.0" standalone="no"?><!DOCTYPE svg PUBLIC "-//W3C//DTD SVG 1.1//EN" "http://www.w3.org/Graphics/SVG/1.1/DTD/svg11.dtd"><svg t="1503823159242" class="icon" style="" viewBox="0 0 1025 1024" version="1.1" xmlns="http://www.w3.org/2000/svg" p-id="3008" xmlns:xlink="http://www.w3.org/1999/xlink" width="32.03125" height="32"><defs><style type="text/css"></style></defs><path d="M1024 865.85856C1024 969.68704 766.42816 1024 511.98976 1024 257.5616 1024 0 969.68704 0 865.85856c0-92.12928 198.40512-130.52928 283.71456-142.76096 12.66176-1.77152 24.43776 6.99392 26.25536 19.67616 1.82272 12.68224-6.99392 24.43264-19.68128 26.25536-177.664 25.48224-243.88608 72.91392-243.88608 96.83456 0 45.56288 181.376 111.73376 465.5872 111.73376 284.23168 0 465.60256-66.17088 465.60256-111.73376 0-24.09984-66.85696-71.79776-246.25152-97.16224-12.69248-1.79712-21.5296-13.54752-19.73248-26.22464 1.80736-12.68736 13.57824-21.43744 26.2144-19.73248C823.87456 734.9248 1023.99488 773.2224 1024 865.85856L1024 865.85856zM413.81888 314.67008c0-54.13376 44.03712-98.176 98.15552-98.176 54.144 0 98.2016 44.04224 98.2016 98.176s-44.05248 98.17088-98.2016 98.17088C457.85088 412.84096 413.81888 368.79872 413.81888 314.67008M656.5888 314.67008c0-79.72864-64.8704-144.57856-144.60928-144.57856-79.71328 0-144.55296 64.85504-144.55296 144.57856 0 79.7184 64.8448 144.57856 144.55296 144.57856C591.7184 459.25376 656.5888 394.3936 656.5888 314.67008M511.98976 65.408c142.78144 0 258.93888 116.15232 258.93888 258.9184 0 197.82656-200.54528 420.09088-259.12832 480.78336-58.752-59.60192-258.72384-277.43744-258.72384-480.78336C253.07648 181.56032 369.22368 65.408 511.98976 65.408M496.14336 854.84032l16.04096 14.98624 15.85664-15.1808c11.81184-11.3152 289.29536-279.95136 289.29536-530.304 0-168.36608-136.97536-305.3312-305.34656-305.3312-168.35584 0-305.32096 136.96512-305.32096 305.3312C206.6688 581.44768 484.33152 843.8016 496.14336 854.84032L496.14336 854.84032z" p-id="3009" fill="#28BB78"></path></svg>