<?xml version="1.0" standalone="no"?><!DOCTYPE svg PUBLIC "-//W3C//DTD SVG 1.1//EN" "http://www.w3.org/Graphics/SVG/1.1/DTD/svg11.dtd"><svg t="1503998520086" class="icon" style="" viewBox="0 0 1024 1024" version="1.1" xmlns="http://www.w3.org/2000/svg" p-id="2092" xmlns:xlink="http://www.w3.org/1999/xlink" width="32" height="32"><defs><style type="text/css"></style></defs><path d="M0 0" p-id="2093" fill="#28BB78"></path><path d="M535.586133 860.808533c-144.213333 0-255.317333-53.998933-285.525333-138.069333-98.5088-72.192-93.3888-152.576-83.3536-310.272 6.656-104.584533-8.6016-144.725333-17.749333-168.686933-0.8192-2.218667-1.6384-4.3008-2.3552-6.314667-45.738667-19.217067-75.9808-63.8976-75.9808-113.732267C70.621867 55.5008 126.122667 0 194.3552 0s123.733333 55.466667 123.733333 123.733333c0 11.741867 4.164267 30.549333 5.290667 34.542934 14.813867 52.462933 70.2464 228.215467 170.052267 318.634666a427.531378 427.531378 0 0 1 42.0864-2.184533c38.741333 0 76.458667 5.12 112.401066 15.223467 16.0768-11.400533 31.812267-22.9376 47.2064-34.2016 81.8176-59.869867 152.4736-111.581867 217.873067-111.581867 18.807467 0 36.5568 4.437333 52.736 13.2096 59.733333 32.3584 58.538667 73.386667 55.330133 89.531733-6.8608 34.065067-39.1168 61.610667-83.6608 73.659734 13.994667 20.616533 18.466133 41.0624 12.936534 60.142933-9.9328 34.065067-50.0736 58.129067-122.538667 73.5232 1.1264 6.9632 1.672533 13.892267 1.672533 20.650667 0.068267 107.7248-123.5968 185.924267-293.888 185.924266zM194.3552 34.133333c-49.3568 0-89.6 40.174933-89.6 89.6 0 38.126933 24.507733 72.055467 60.996267 84.48a17.066667 17.066667 0 0 1 10.922666 11.502934c1.024 3.549867 2.525867 7.406933 4.232534 11.912533 10.103467 26.555733 26.999467 70.997333 19.899733 182.9888-10.683733 168.277333-10.103467 224.324267 73.591467 283.5456 3.037867 2.1504 5.290667 5.290667 6.417066 8.840533 22.698667 72.704 122.709333 119.671467 254.7712 119.671467 148.138667 0 259.754667-65.262933 259.754667-151.790933 0-9.454933-1.4336-19.285333-4.3008-29.252267a16.827733 16.827733 0 0 1 1.877333-13.585067c2.4576-4.061867 6.519467-6.8608 11.195734-7.816533l12.288-2.4576c79.906133-16.2816 97.621333-38.673067 101.1712-50.5856 5.188267-17.783467-12.970667-38.8096-24.2688-49.732267-4.8128-4.642133-6.417067-11.605333-4.232534-17.885866s7.816533-10.717867 14.4384-11.3664c49.2544-4.881067 79.633067-29.832533 84.0704-51.950934 3.720533-18.6368-9.796267-37.410133-38.126933-52.770133a74.626844 74.626844 0 0 0-36.4544-9.079467c-54.203733 0-123.869867 51.029333-197.666133 104.994134-17.749333 12.970667-35.874133 26.248533-54.4768 39.3216a16.941511 16.941511 0 0 1-14.813867 2.3552c-35.089067-10.683733-72.260267-16.145067-110.4896-16.145067-14.336 0-29.320533 0.9216-45.8752 2.798933a16.918756 16.918756 0 0 1-13.038933-4.027733c-110.523733-95.095467-170.427733-284.3648-186.1632-340.0704-1.297067-4.744533-6.5536-27.136-6.5536-43.861333C283.9552 74.308267 243.746133 34.133333 194.3552 34.133333z" p-id="2094" fill="#28BB78"></path><path d="M18.807467 270.1312A17.043911 17.043911 0 0 1 3.3792 245.76L74.001067 97.518933a17.021156 17.021156 0 0 1 22.7328-8.055466 17.021156 17.021156 0 0 1 8.055466 22.7328L48.878933 229.5808l107.9296-21.9136a17.032533 17.032533 0 0 1 20.104534 13.346133 17.032533 17.032533 0 0 1-13.312 20.104534L22.1184 269.824a17.567289 17.567289 0 0 1-3.310933 0.3072zM525.9264 1006.933333c-9.4208 0-17.066667-7.68-17.066667-17.066666V853.333333c0-9.386667 7.645867-17.066667 17.066667-17.066666 9.386667 0 17.066667 7.68 17.066667 17.066666v136.533334c0 9.386667-7.645867 17.066667-17.066667 17.066666z" p-id="2095" fill="#28BB78"></path><path d="M542.993067 1024h-34.133334c-9.4208 0-17.066667-7.68-17.066666-17.066667s7.645867-17.066667 17.066666-17.066666h34.133334c9.386667 0 17.066667 7.68 17.066666 17.066666s-7.645867 17.066667-17.066666 17.066667zM450.2528 775.4752a17.066667 17.066667 0 0 1 0-34.133333c148.104533 0 259.720533-65.262933 259.720533-151.7568a17.066667 17.066667 0 0 1 34.133334 0c0.1024 107.690667-123.562667 185.890133-293.853867 185.890133z" p-id="2096" fill="#28BB78"></path></svg>