<?xml version="1.0" standalone="no"?><!DOCTYPE svg PUBLIC "-//W3C//DTD SVG 1.1//EN" "http://www.w3.org/Graphics/SVG/1.1/DTD/svg11.dtd"><svg t="1503556975762" class="icon" style="" viewBox="0 0 1462 1024" version="1.1" xmlns="http://www.w3.org/2000/svg" p-id="4098" xmlns:xlink="http://www.w3.org/1999/xlink" width="45.6875" height="32"><defs><style type="text/css"></style></defs><path d="M660.626286 775.899429c-3.949714-26.989714-5.266286-50.688-5.266286-85.577143V357.229714c0-39.497143 1.316571-69.778286 5.266286-108.617143-23.698286 2.633143-33.572571 3.291429-67.145143 3.291429h-60.562286c-30.939429 0-45.421714-0.658286-65.828571-3.949714v83.602285a585.435429 585.435429 0 0 1 67.803428-3.949714h31.597715v362.715429c0 34.230857-1.316571 59.904-5.266286 85.577143h99.401143z" fill="#28BB78" p-id="4099"></path><path d="M73.142857 146.176v731.648C73.142857 918.089143 105.837714 950.857143 145.92 950.857143h757.613714c59.099429 0 147.456-40.484571 186.477715-85.577143l221.622857-256.256c30.573714-35.291429 32.658286-98.413714 4.754285-135.314286l-237.092571-313.088C1044.553143 114.688 961.097143 73.142857 903.533714 73.142857H145.92C105.947429 73.142857 73.142857 105.947429 73.142857 146.176z m-73.142857 0A146.249143 146.249143 0 0 1 145.92 0h757.613714c80.566857 0 185.563429 52.370286 234.057143 116.48l237.092572 313.051429c48.676571 64.365714 45.494857 165.851429-7.68 227.364571l-221.659429 256.256C1092.352 974.372571 983.771429 1024 903.533714 1024H145.92A146.139429 146.139429 0 0 1 0 877.824V146.176z" fill="#28BB78" p-id="4100"></path></svg>