<?xml version="1.0" standalone="no"?><!DOCTYPE svg PUBLIC "-//W3C//DTD SVG 1.1//EN" "http://www.w3.org/Graphics/SVG/1.1/DTD/svg11.dtd"><svg t="1503556870240" class="icon" style="" viewBox="0 0 1462 1024" version="1.1" xmlns="http://www.w3.org/2000/svg" p-id="3830" xmlns:xlink="http://www.w3.org/1999/xlink" width="45.6875" height="32"><defs><style type="text/css"></style></defs><path d="M697.490286 775.899429c42.130286 0 68.461714 1.316571 99.401143 3.949714v-86.893714c-21.723429 3.291429-54.637714 5.266286-96.109715 5.266285h-184.32c9.874286-25.014857 17.773714-38.180571 37.522286-59.245714 16.457143-17.773714 49.371429-45.421714 78.336-65.828571 85.577143-58.587429 92.16-63.853714 110.592-80.969143 32.256-30.281143 46.738286-61.878857 46.738286-105.325715 0-90.185143-71.094857-145.481143-186.294857-145.481142-65.828571 0-117.833143 20.406857-150.747429 58.587428-24.356571 28.306286-36.205714 55.296-45.421714 105.325714l94.134857 11.190858c4.608-30.281143 9.216-44.763429 20.406857-60.562286 16.457143-25.673143 45.421714-38.838857 83.602286-38.838857 55.954286 0 90.843429 27.648 90.843428 72.411428 0 33.572571-18.432 55.296-78.994285 96.768-65.828571 44.105143-85.577143 59.245714-108.617143 79.652572-42.788571 38.838857-72.411429 80.969143-90.185143 129.024-8.557714 23.698286-13.165714 46.738286-17.115429 84.260571 23.04-2.633143 33.572571-3.291429 84.918857-3.291428h211.309715z" fill="#28BB78" p-id="3831"></path><path d="M73.142857 146.176v731.648C73.142857 918.089143 105.837714 950.857143 145.92 950.857143h757.613714c59.099429 0 147.456-40.484571 186.477715-85.577143l221.622857-256.256c30.573714-35.291429 32.658286-98.413714 4.754285-135.314286l-237.092571-313.088C1044.553143 114.688 961.097143 73.142857 903.533714 73.142857H145.92C105.947429 73.142857 73.142857 105.947429 73.142857 146.176z m-73.142857 0A146.249143 146.249143 0 0 1 145.92 0h757.613714c80.566857 0 185.563429 52.370286 234.057143 116.48l237.092572 313.051429c48.676571 64.365714 45.494857 165.851429-7.68 227.364571l-221.659429 256.256C1092.352 974.372571 983.771429 1024 903.533714 1024H145.92A146.139429 146.139429 0 0 1 0 877.824V146.176z" fill="#28BB78" p-id="3832"></path></svg>