<?xml version="1.0" standalone="no"?><!DOCTYPE svg PUBLIC "-//W3C//DTD SVG 1.1//EN" "http://www.w3.org/Graphics/SVG/1.1/DTD/svg11.dtd"><svg t="1508143756050" class="icon" style="" viewBox="0 0 1024 1024" version="1.1" xmlns="http://www.w3.org/2000/svg" p-id="4304" xmlns:xlink="http://www.w3.org/1999/xlink" width="32" height="32"><defs><style type="text/css"></style></defs><path d="M821.197 450.077c-0.062-2.956-0.587-5.906-1.731-8.691-1.234-2.997-3.023-5.731-5.191-7.972l-285.482-268.118c-9.269-9.519-24.373-9.519-33.638 0l-285.424 268.118c-2.257 2.239-3.958 4.974-5.159 7.972-1.177 2.846-1.701 5.779-1.731 8.801 0 0.172-0.147 0.368-0.147 0.54v316.889c0 53.782 42.702 97.535 95.198 97.535h118.988c13.109 0 23.786-10.949 23.786-24.395v-195.047h142.773v207.211c0 6.713 5.28 12.141 11.846 12.141h130.837c52.498 0 95.198-43.726 95.198-97.514v-316.884c-0.002-0.177-0.117-0.371-0.117-0.586v0zM726.113 816.317h-95.17v-207.211c0-6.735-5.31-12.163-11.882-12.163h-202.189c-13.14 0-23.814 10.927-23.814 24.395v195.026h-95.171c-26.219 0-47.597-21.899-47.597-48.745v-306.203l261.697-244.419 261.666 244.419v306.199c0.055 26.848-21.321 48.702-47.54 48.702v0zM726.113 816.317z" p-id="4305" fill="#28BB78"></path></svg>