<?xml version="1.0" standalone="no"?><!DOCTYPE svg PUBLIC "-//W3C//DTD SVG 1.1//EN" "http://www.w3.org/Graphics/SVG/1.1/DTD/svg11.dtd"><svg t="1504005315143" class="icon" style="" viewBox="0 0 1024 1024" version="1.1" xmlns="http://www.w3.org/2000/svg" p-id="2859" xmlns:xlink="http://www.w3.org/1999/xlink" width="32" height="32"><defs><style type="text/css"></style></defs><path d="M239.786667 393.813333c97.393778 0 176.611556-79.203556 176.611556-176.583111 0-97.379556-79.217778-176.597333-176.611556-176.597333-97.365333 0-176.583111 79.217778-176.583111 176.597333C63.203556 314.609778 142.407111 393.813333 239.786667 393.813333zM239.786667 97.521778c66.019556 0 119.722667 53.703111 119.722667 119.708444s-53.703111 119.694222-119.722667 119.694222c-66.005333 0-119.694222-53.688889-119.694222-119.694222C120.092444 151.210667 173.781333 97.521778 239.786667 97.521778z" p-id="2860" fill="#28BB78"></path><path d="M175.715556 217.244444l-0.071111-3.797333c-0.056889-1.621333-0.056889-1.621333 0.298667-3.484444 1.464889-7.708444-3.584-15.175111-11.292444-16.654222-7.665778-1.422222-15.175111 3.584-16.654222 11.292444-0.896 4.650667-0.896 6.798222-0.796444 9.784889l0.056889 2.844444c0 7.864889 6.357333 14.222222 14.222222 14.222222C169.329778 231.452444 175.701333 225.095111 175.715556 217.244444z" p-id="2861" fill="#28BB78"></path><path d="M174.691556 187.889778c4.579556 0 9.088-2.204444 11.832889-6.314667 11.932444-17.806222 31.843556-28.444444 53.262222-28.444444 7.864889 0 14.222222-6.357333 14.222222-14.222222 0-7.864889-6.357333-14.222222-14.222222-14.222222-30.919111 0-59.662222 15.345778-76.899556 41.059556-4.366222 6.528-2.631111 15.36 3.896889 19.740444C169.216 187.107556 171.975111 187.889778 174.691556 187.889778z" p-id="2862" fill="#28BB78"></path><path d="M637.994667 393.813333c97.408 0 176.611556-79.203556 176.611556-176.583111 0-97.379556-79.203556-176.597333-176.611556-176.597333-97.365333 0-176.583111 79.217778-176.583111 176.597333C461.425778 314.609778 540.643556 393.813333 637.994667 393.813333zM637.994667 97.521778c66.033778 0 119.722667 53.703111 119.722667 119.708444s-53.688889 119.694222-119.722667 119.694222c-66.005333 0-119.694222-53.688889-119.694222-119.694222C518.314667 151.210667 572.003556 97.521778 637.994667 97.521778z" p-id="2863" fill="#28BB78"></path><path d="M572.913778 187.889778c4.579556 0 9.088-2.204444 11.832889-6.314667 11.932444-17.806222 31.829333-28.444444 53.248-28.444444 7.879111 0 14.222222-6.357333 14.222222-14.222222 0-7.864889-6.343111-14.222222-14.222222-14.222222-30.919111 0-59.648 15.345778-76.885333 41.059556-4.366222 6.528-2.645333 15.36 3.882667 19.740444C567.438222 187.107556 570.197333 187.889778 572.913778 187.889778z" p-id="2864" fill="#28BB78"></path><path d="M979.256889 456.846222c-9.315556-9.528889-20.935111-14.634667-35.086222-14.634667-11.505778 0-23.907556 3.086222-38.968889 10.368-44.714667 23.921778-108.686222 57.528889-150.499556 79.317333l0.696889-10.666667c0.056889-0.696889 0.085333-2.787556 0.085333-3.498667 0-55.338667-44.231111-103.253333-98.588444-103.253333L128.711111 414.478222c-53.447111 0-100.280889 52.565333-100.280889 107.932444L28.430222 894.151111c0 53.262222 44.999111 89.201778 100.280889 89.201778l528.184889 0c54.840889 0 97.834667-39.068444 98.531556-92.714667-0.014222 0.056889-0.014222 0.128-0.028444 0.028444l-1.479111-23.665778c37.788444 18.944 96.497778 49.379556 150.940444 78.051556 1.550222 0.824889 2.972444 1.536 4.664889 2.076444 14.805333 4.551111 26.595556 7.68 37.959111 7.751111 20.266667-0.156444 32.568889-10.069333 38.542222-18.332444 7.082667-9.770667 9.528889-22.414222 9.528889-39.523556L995.555556 514.360889 995.555556 512.853333C995.555556 501.518222 997.006222 474.851556 979.256889 456.846222zM940.359111 896.412444c-3.968-0.938667-8.206222-2.261333-11.164444-3.171556-191.317333-100.721778-197.973333-100.892444-206.421333-100.892444-7.836444 0-15.331556 2.872889-20.721778 8.590222-5.361778 5.688889-8.135111 12.643556-7.665778 20.465778l4.195556 68.778667c-0.412444 22.030222-18.588444 36.280889-41.699556 36.280889L128.711111 926.464c-24.149333 0-43.392-10.24-43.392-32.312889L85.319111 522.410667c0-24.092444 21.176889-51.043556 43.392-51.043556l0-0.014222 528.184889 0c22.314667 0 41.201778 22.300444 41.685333 45.468444l-4.167111 61.425778c-0.554667 7.864889 2.176 15.644444 7.537778 21.418667 5.390222 5.774222 12.942222 9.059556 20.835556 9.059556 9.272889 0 11.747556-0.028444 208.170667-105.088 3.882667-1.877333 6.826667-2.958222 8.96-3.584 0.341333 2.545778 0.568889 6.286222 0.483556 11.875556L940.359111 896.412444z" p-id="2865" fill="#28BB78"></path><path d="M755.413333 890.652444c0.014222-0.142222 0.028444-0.512 0.042667-0.867556C755.456 890.083556 755.413333 890.368 755.413333 890.652444z" p-id="2866" fill="#28BB78"></path><path d="M947.911111 954.922667c-0.142222 0-0.284444-0.028444-0.426667-0.028444s-0.298667 0.028444-0.440889 0.028444C947.029333 954.922667 947.911111 954.922667 947.911111 954.922667z" p-id="2867" fill="#28BB78"></path><path d="M755.456 889.784889c0-0.113778 0.014222-0.227556 0.014222-0.327111C755.470222 889.244444 755.470222 889.486222 755.456 889.784889z" p-id="2868" fill="#28BB78"></path><path d="M286.122667 499.797333l-120.803556 0c-28.544 0-51.555556 35.2-51.555556 61.511111l0 72.277333c0 7.864889 6.357333 14.222222 14.222222 14.222222 7.864889 0 14.222222-6.357333 14.222222-14.236444l0-72.277333c0-13.240889 12.714667-33.038222 23.111111-33.038222l120.803556 0c7.864889 0 14.222222-6.357333 14.222222-14.222222S293.987556 499.797333 286.122667 499.797333z" p-id="2869" fill="#28BB78"></path><path d="M357.233778 499.811556l-14.222222 0c-7.864889 0-14.222222 6.357333-14.222222 14.222222 0 7.850667 6.357333 14.222222 14.222222 14.222222l14.222222 0c7.864889 0 14.222222-6.357333 14.222222-14.222222C371.456 506.168889 365.098667 499.811556 357.233778 499.811556z" p-id="2870" fill="#28BB78"></path></svg>